<svg width="220" height="60" viewBox="0 0 220 60" fill="none" xmlns="http://www.w3.org/2000/svg">
    <defs>
        <linearGradient id="grad1" x1="0%" y1="0%" x2="100%" y2="0%">
            <stop offset="0%" style="stop-color:#FF6600;stop-opacity:1" />
            <stop offset="100%" style="stop-color:#D4AF37;stop-opacity:1" />
        </linearGradient>
    </defs>
    
    <!-- Letra L (Branco) -->
    <path d="M10 10 V50 H35" stroke="white" stroke-width="8" stroke-linecap="round" stroke-linejoin="round"/>
    
    <!-- Símbolo Infinito (Degradê Laranja/Dourado) -->
    <!-- Substituindo os dois "oo" -->
    <path d="M60 40 C 60 55, 85 55, 95 40 C 105 25, 130 25, 130 40 C 130 55, 105 55, 95 40 C 85 25, 60 25, 60 40 Z" 
          stroke="url(#grad1)" stroke-width="8" stroke-linecap="round" fill="none" />

    <!-- Letras mper (Branco) -->
    <!-- M -->
    <path d="M145 50 V25 Q145 20 155 25 V50 M155 25 Q165 20 175 25 V50" stroke="white" stroke-width="6" stroke-linecap="round" stroke-linejoin="round" fill="none"/>
    <!-- P -->
    <path d="M185 55 V25 Q200 20 200 32 Q200 45 185 40" stroke="white" stroke-width="6" stroke-linecap="round" fill="none"/>
    <!-- E -->
    <path d="M225 45 H210 Q210 50 220 50 M225 35 H210 Q210 25 220 25" stroke="white" stroke-width="6" stroke-linecap="round" fill="none"/>
    <!-- R -->
    <path d="M235 50 V25 Q250 20 250 30 Q250 35 240 35 L250 50" stroke="white" stroke-width="6" stroke-linecap="round" fill="none"/>
</svg>
